HIERARCHY
ROOT Hips
{
    OFFSET 11.506372451782227 91.02335739135742 -18.213815689086914
    CHANNELS 6 Xposition Yposition Zposition Zrotation Xrotation Yrotation
    JOINT RightUpLeg
    {
        OFFSET -11.506372451782227 0.0 0.0
        CHANNELS 3 Zrotation Xrotation Yrotation
        JOINT RightLeg
        {
            OFFSET 0.0 -45.48881912231445 0.0
            CHANNELS 3 Zrotation Xrotation Yrotation
            JOINT RightFoot
            {
                OFFSET 0.0 -45.53453826904297 0.0
                CHANNELS 3 Zrotation Xrotation Yrotation
                End Site
                {
                    OFFSET 0.0 0.0 18.213815689086914
                }
            }
        }
    }
    JOINT LeftUpLeg
    {
        OFFSET 11.506372451782227 0.0 0.0
        CHANNELS 3 Zrotation Xrotation Yrotation
        JOINT LeftLeg
        {
            OFFSET 0.0 -45.48881912231445 0.0
            CHANNELS 3 Zrotation Xrotation Yrotation
            JOINT LeftFoot
            {
                OFFSET 0.0 -45.53453826904297 0.0
                CHANNELS 3 Zrotation Xrotation Yrotation
                End Site
                {
                    OFFSET 0.0 0.0 18.213815689086914
                }
            }
        }
    }
    JOINT Spine
    {
        OFFSET 0.0 23.51874542236328 0.0
        CHANNELS 3 Zrotation Xrotation Yrotation
        JOINT Spine3
        {
            OFFSET 0.0 25.246265411376953 0.0
            CHANNELS 3 Zrotation Xrotation Yrotation
            JOINT Neck
            {
                OFFSET 0.0 11.309535026550293 0.0
                CHANNELS 3 Zrotation Xrotation Yrotation
                End Site
                {
                    OFFSET 0.0 4.523813724517822 0.0
                }
            }
            JOINT LeftArm
            {
                OFFSET 13.077309608459473 0.0 0.0
                CHANNELS 3 Zrotation Xrotation Yrotation
                JOINT LeftForeArm
                {
                    OFFSET 28.48154067993164 0.0 0.0
                    CHANNELS 3 Zrotation Xrotation Yrotation
                    JOINT LeftHand
                    {
                        OFFSET 17.095088958740234 0.0 0.0
                        CHANNELS 3 Zrotation Xrotation Yrotation
                        End Site
                        {
                            OFFSET 6.838036060333252 0.0 0.0
                        }
                    }
                }
            }
            JOINT RightArm
            {
                OFFSET -13.077309608459473 0.0 0.0
                CHANNELS 3 Zrotation Xrotation Yrotation
                JOINT RightForeArm
                {
                    OFFSET -28.48154067993164 0.0 0.0
                    CHANNELS 3 Zrotation Xrotation Yrotation
                    JOINT RightHand
                    {
                        OFFSET -17.095088958740234 0.0 0.0
                        CHANNELS 3 Zrotation Xrotation Yrotation
                        End Site
                        {
                            OFFSET -6.838036060333252 0.0 0.0
                        }
                    }
                }
            }
        }
    }
}
MOTION
Frames: 5
Frame Time: 0.03333333333333333
0.0004192203050479293 87.87297058105469 -0.0010304724564775825 -3.6121366335747376 -7.303634534381957 -20.068122970600996 -0.424557321378588 17.555632207951845 -0.4046654195205399 0.43689877438795316 11.836280464427013 -0.3503832763564342 0.0 0.0 -1.4908850069360234e-15 2.751051731790448 18.97579704947119 -1.4801718055501978 -2.201189643946202 11.399625703749422 -0.41570707387312833 0.0 0.0 2.1866313435061676e-15 3.098441881475129 21.262020585567758 -1.772392833041716 6.756595077591968e-07 -1.0845990914011258e-07 -0.5862423922758306 1.785218529488015 10.772294244935997 -177.86535512379376 112.28668956122226 -34.39989175825243 -174.0685481765248 -6.998690980577703e-07 -3.356727640206829e-07 28.799610158378886 -6.3611093629270335e-15 3.531125038440127e-31 -6.3611093629270335e-15 -114.92729326621073 -24.352428614536972 173.74785928052526 -7.730059071456596e-06 -1.0545221783961446e-06 -39.6356477673166 8.348956038841732e-15 0.0 0.0
0.0004209807375445962 87.87300872802734 -0.0010276446118950844 -3.610785407810238 -7.36308555581233 -19.65610875806772 -0.23742586179259587 17.499094323043575 -0.45061869469096316 0.3143950252955459 12.050132771940703 -0.362309587774498 7.951386703658792e-16 -3.1805546814635168e-15 2.2860236773019026e-15 3.1593305927561564 18.934265505712027 -1.6003978845809725 -2.933146646856446 11.273097537979694 -0.338089281697286 0.0 0.0 -1.987846675914698e-16 2.9751115042485448 21.07358043125 -1.701812522704744 -4.87347991747206e-07 -8.666943028617843e-07 -0.35558956112893414 1.9998087136641016 10.705535752755575 -179.00866948842724 112.23300829086922 -33.94754594270586 -174.5870169057184 2.725202286006851e-06 2.992480321084292e-06 28.984881522193433 -1.5902773407317584e-15 6.3611093629270335e-15 8.827812596100317e-32 -115.18476668995801 -24.65780915453635 173.86668968931053 -3.4731947433774342e-06 -1.1185825971962136e-07 -39.37400469921453 -7.156248033292914e-15 0.0 0.0
0.000429297040682286 87.87305450439453 -0.0010289415949955583 -3.5063241942442973 -7.2543829525934305 -19.52547240303175 -0.3587293863401028 17.284868947956728 -0.4434569226289399 0.436175052588509 12.220951312209595 -0.39225421025403706 7.951386703658792e-16 -9.93923337957349e-17 -7.951386703658792e-16 3.200249868846331 18.728799571199687 -1.6341593677317403 -2.8722553975743796 11.477942935456726 -0.38689956356129424 3.975693351829396e-16 3.1805546814635168e-15 -1.987846675914698e-16 2.911983678162741 20.941803434793627 -1.710387440646152 5.706934808585365e-07 -7.003140407306386e-07 -0.2196654946396928 2.106642473869458 10.806906793949326 -179.57959019171068 112.45945895378861 -33.801516507836226 -174.8170007775495 -4.413667444559445e-06 -8.897491872650553e-07 29.71583801922584 1.590277340731758e-15 6.3611093629270335e-15 6.3611093629270335e-15 -115.94991975841934 -25.63126783897822 173.9148234071255 3.5890325398397123e-06 -2.0675779968708953e-06 -40.30205181477797 8.34895603884173e-15 0.0 0.0
0.00042323244269937277 87.87305450439453 -0.0010268602054566145 -3.362033810223408 -7.318729266571587 -19.309839321320165 -0.5622757442934145 17.15869673372343 -0.4184788035700365 0.6256072904257792 12.39760198932245 -0.4234797557086443 -3.975693351829396e-16 9.93923337957349e-17 3.4483642953516864e-34 3.219304103964657 18.730071857811737 -1.6819842391980695 -3.1822478546421378 11.524671524456085 -0.35445019770400626 -1.1927080055488188e-15 -1.034509288605506e-33 9.93923337957349e-17 2.829994652743533 20.75947669111018 -1.7129203501040342 3.988750746611435e-07 -4.159482644001026e-07 -0.04169766393497193 1.7646788852254989 10.935865127166794 179.25975940339058 112.59710599502829 -32.462314614512955 -175.16225925387445 6.018857932283177e-06 -4.9443003285055395e-06 30.58055663094596 3.1805546814635168e-15 -6.3611093629270335e-15 6.3611093629270335e-15 -116.59903517016551 -24.932341937028404 174.17793586318058 3.046957355707479e-07 -2.0281595470077303e-06 -41.753360165873964 1.9878466759146976e-15 0.0 0.0
0.0003985039365943521 87.87303161621094 -0.0010371935786679387 -3.3341802420453526 -7.364221322590588 -19.331373998475314 -0.4307575548365225 17.14683964574733 -0.4484453134164404 0.2594294124842287 12.25509056717776 -0.3617176156397902 3.975693351829396e-16 3.2799470152592518e-15 5.963540027744094e-16 2.973365108410711 18.80891463740623 -1.5993082664104974 -2.6806436717191904 11.332222539267296 -0.3954990058493115 -3.975693351829396e-16 9.93923337957349e-17 1.3914926731402886e-15 2.6157316228038314 20.717719253452707 -1.6229301857498089 -2.3780623051272964e-08 1.203429900088633e-06 -0.1449531312821951 1.9960771575199079 11.352571655211333 179.38038397334887 113.1134137997481 -31.033243676232022 -175.65312805143705 -1.263422555502644e-06 5.844366643246489e-06 31.924292951403043 7.95138670365879e-15 4.413906298050159e-31 6.361109362927033e-15 -117.30821216526397 -25.011456289312882 174.678011328167 -8.296885148487318e-07 -6.894778603824989e-07 -44.14952227411514 -1.5902773407317584e-15 0.0 0.0
